<?xml version="1.0" encoding="UTF-8" standalone="no"?>
<!-- Created with Inkscape (http://www.inkscape.org/) -->

<svg
   version="1.1"
   id="svg1"
   width="627.29834"
   height="1042.2578"
   viewBox="0 0 627.29831 1042.2578"
   sodipodi:docname="esqueleto.svg"
   inkscape:version="1.3.2 (091e20e, 2023-11-25, custom)"
   xmlns:inkscape="http://www.inkscape.org/namespaces/inkscape"
   xmlns:sodipodi="http://sodipodi.sourceforge.net/DTD/sodipodi-0.dtd"
   xmlns="http://www.w3.org/2000/svg"
   xmlns:svg="http://www.w3.org/2000/svg">
  <defs
     id="defs1" />
  <sodipodi:namedview
     id="namedview1"
     pagecolor="#ffffff"
     bordercolor="#000000"
     borderopacity="0.25"
     inkscape:showpageshadow="2"
     inkscape:pageopacity="0.0"
     inkscape:pagecheckerboard="0"
     inkscape:deskcolor="#d1d1d1"
     inkscape:zoom="0.43859698"
     inkscape:cx="-270.1797"
     inkscape:cy="792.29913"
     inkscape:window-width="1920"
     inkscape:window-height="1009"
     inkscape:window-x="-8"
     inkscape:window-y="-8"
     inkscape:window-maximized="1"
     inkscape:current-layer="g1" />
  <g
     inkscape:groupmode="layer"
     inkscape:label="Image"
     id="g1"
     transform="translate(219.55844,110.6677)">
    <ellipse
       style="fill:#000000;fill-opacity:1;stroke:#000000;stroke-width:5.70175;stroke-linecap:round;stroke-dasharray:none;paint-order:stroke fill markers"
       id="path28"
       cx="33.18071"
       cy="396.24817"
       rx="50.154659"
       ry="77.603065" />
    <path
       style="fill:#ffffff;fill-opacity:1;stroke:#000000;stroke-width:3.69365;stroke-dasharray:none"
       d="m 107.94907,827.5209 c -8.010201,5.99491 -13.002379,11.68996 -13.229666,22.39786 -0.227348,10.70791 7.976136,19.04601 12.372196,22.75939 4.87276,4.11596 20.84251,3.56933 25.5398,-2.42917 3.3017,-4.21626 17.78792,-5.74691 27.35893,-4.331 9.57098,1.41597 29.29181,9.35365 31.89646,11.38982 2.60461,2.03611 16.38234,4.2892 19.88622,4.90932 3.50383,0.62013 24.24786,2.25297 26.53205,0.34086 2.28416,-1.91217 4.34109,-3.58647 2.82161,-9.13685 -1.51937,-5.55032 -11.84496,-9.50886 -20.02064,-10.95584 -8.17565,-1.44698 -21.35388,-8.13407 -30.90432,-19.08998 -9.5504,-10.95583 -24.465,-12.02027 -29.73635,-18.88323 -5.27134,-6.86297 -24.18595,-9.93245 -32.72331,-6.71797 -8.53734,3.21448 -19.79298,9.74686 -19.79298,9.74686 z"
       id="path25"
       sodipodi:nodetypes="cssssssssssssc"
       inkscape:transform-center-x="-43.650251"
       inkscape:transform-center-y="17.260363" />
    <path
       style="fill:#ffffff;fill-opacity:1;stroke:#000000;stroke-width:3.69365;stroke-dasharray:none"
       d="m 51.290954,467.35825 c 0,0 19.408945,-7.89516 25.659287,0.32891 6.250339,8.22413 10.52688,22.6986 10.52688,22.6986 l 50.002719,152.6399 c 0,0 3.94758,7.5662 2.30278,11.18481 -1.6448,3.61866 -11.51381,6.90824 -11.51381,6.90824 l -11.84274,-1.97376 -9.86897,-17.7641 c 0,0 0,-16.11932 -3.61861,-36.1862 -3.618613,-20.06688 -15.790331,-51.31858 -23.685494,-67.43789 -7.895173,-16.11929 -10.197911,-40.13375 -17.764108,-44.41032 -7.566224,-4.27653 -21.382766,5.26345 -21.382766,-9.53999 0,-14.80342 11.184832,-16.44826 11.184832,-16.44826 z"
       id="path24" />
    <path
       style="fill:#ffffff;fill-opacity:1;stroke:#000000;stroke-width:5.522;stroke-dasharray:none"
       d="m 96.126095,251.5652 c 0,0 -7.62987,1.04346 -13.287899,-8.59351 -5.658019,-9.63693 -0.887751,-17.69308 2.631566,-19.96147 3.519322,-2.26841 12.296357,-2.39073 16.910988,-0.38376 4.61464,2.00704 18.30284,18.09145 18.30284,18.09145 l -5.8818,129.98763 c 0,0 -4.01411,9.22925 -8.48978,6.57908 -4.47569,-2.65006 -9.116388,-2.97951 -8.717814,-20.39512 0.398353,-17.41506 8.545134,-76.90842 -1.468048,-105.32441 z"
       id="path6"
       inkscape:transform-center-x="-12.066337"
       inkscape:transform-center-y="65.159112" />
    <g
       id="g23"
       transform="matrix(18.468247,0,0,18.468247,-434.83784,-357.88506)">
      <path
         style="fill:#ffffff;fill-opacity:1;stroke:#000000;stroke-width:0.2;stroke-dasharray:none"
         d="m 27.709716,26.021942 -1.93968,1.93968 c 0,0 -1.032816,0.831292 -1.813727,1.259533 -0.78091,0.428241 -1.889298,1.93968 -1.914489,2.997687 -0.02519,1.058008 0.478622,3.677835 0.478622,4.005314 0,0.327478 1.15877,2.72059 1.183961,3.022878 0.02519,0.302288 1.209151,1.486249 1.914489,1.612202 0.705339,0.125953 0.982436,0.176334 1.838918,-0.705338 0.856482,-0.881673 1.486248,-4.106077 1.56182,-4.811415 0.07557,-0.705338 0.02519,-2.871734 -0.277097,-3.325166 -0.302288,-0.453432 -0.37786,-0.428241 -0.755719,-1.083198 -0.37786,-0.654957 0.579385,-2.116015 0.579385,-2.116015 l 1.511439,-1.662583 z"
         id="path3" />
      <path
         style="fill:#ffffff;fill-opacity:1;stroke:#000000;stroke-width:0.299;stroke-linecap:round;stroke-dasharray:none"
         d="M 28.263911,29.120393 C 27.583763,28.541008 27.558573,28.263911 27.558573,28.263911"
         id="path17" />
      <path
         style="fill:#ffffff;fill-opacity:1;stroke:#000000;stroke-width:0.299;stroke-linecap:round;stroke-dasharray:none"
         d="M 28.944058,28.289101 C 28.440245,27.734907 28.415055,27.205903 28.415055,27.205903"
         id="path18" />
      <path
         style="fill:#ffffff;fill-opacity:1;stroke:#000000;stroke-width:0.299;stroke-dasharray:none"
         d="M 29.120392,33.856235 C 28.213529,33.831045 26.097514,32.445559 25.94637,31.614267 25.795226,30.782976 25.845608,30.908929 25.845608,30.908929"
         id="path19" />
      <path
         style="fill:#ffffff;fill-opacity:1;stroke:#000000;stroke-width:0.299;stroke-linecap:round;stroke-dasharray:none"
         d="M 28.843296,36.224157 C 27.05476,35.5692 26.29904,34.81348 26.198277,34.334858 26.097515,33.856235 26.097515,33.302041 25.946371,32.999753 25.795227,32.697465 25.795227,32.697465 25.795227,32.697465"
         id="path20" />
      <path
         style="fill:#ffffff;fill-opacity:1;stroke:#000000;stroke-width:0.299;stroke-linecap:round;stroke-dasharray:none"
         d="M 28.364673,37.88674 C 26.450184,37.584452 25.417367,36.022631 25.316605,35.216531 25.215842,34.41043 25.14027,33.931807 25.14027,33.931807"
         id="path21" />
      <path
         style="fill:#ffffff;fill-opacity:1;stroke:#000000;stroke-width:0.299;stroke-linecap:round;stroke-dasharray:none"
         d="M 28.062386,39.0707 C 26.853234,38.843985 25.618892,38.214218 25.392177,37.609643 25.165461,37.005067 25.165461,37.005067 25.165461,37.005067 L 24.938745,36.148585 24.76241,35.468437"
         id="path22" />
    </g>
    <g
       id="g7"
       transform="matrix(18.468247,0,0,18.468247,-706.53051,-405.33824)">
      <path
         style="fill:#ffffff;fill-opacity:1;stroke:#000000;stroke-width:0.2;stroke-dasharray:none"
         d="m 35.821106,40.179089 c 0,0 0.251907,-0.125953 0.453432,0.251906 0.201525,0.37786 1.183961,6.096138 1.183961,6.096138 l -0.35267,0.07557 c 0,0 -0.201525,-1.864108 -0.554194,-2.972497 C 36.198966,42.52182 36.35011,41.01038 36.022631,40.708093 35.695153,40.405805 35.821106,40.179089 35.821106,40.179089 Z"
         id="path7" />
      <path
         style="fill:#ffffff;fill-opacity:1;stroke:#000000;stroke-width:0.189658;stroke-dasharray:none"
         d="m 37.109516,46.323623 c 0,0 -0.256401,0.107615 -0.45123,-0.233469 -0.19483,-0.341084 -1.061294,-5.463442 -1.061294,-5.463442 l 0.356795,-0.06073 c 0,0 0.162877,1.667582 0.494218,2.663552 0.331339,0.995969 0.14663,2.34207 0.46993,2.618104 0.323301,0.276036 0.191581,0.475983 0.191581,0.475983 z"
         id="path7-3" />
    </g>
    <path
       style="fill:#ffffff;fill-opacity:1;stroke:#000000;stroke-width:3.69365;stroke-dasharray:none"
       d="m 26.889154,418.38885 c 0,0 -8.882007,-4.93449 -15.132384,-2.96071 -12.7963329,4.04089 -34.87032,9.53999 -34.87032,9.53999 0,0 -15.790334,12.5007 -13.158608,32.23859 2.631706,19.73793 -3.947587,25.65932 6.908269,33.55447 10.855859,7.89517 21.053764,11.18483 32.5675541,11.51379 11.5137879,0.32892 28.9489599,-0.98694 39.8047979,-4.27654 10.855858,-3.28967 14.474471,-0.32893 21.382753,-7.89518 6.908275,-7.56619 8.224129,-11.51377 8.224129,-18.09308 0,-6.57931 0.328926,-11.5138 -6.908275,-19.08 -7.237234,-7.5662 -19.394412,-15.34001 -25.659288,-24.01445 -4.276544,-5.92139 -13.158628,-10.52688 -13.158628,-10.52688 z"
       id="path10"
       sodipodi:nodetypes="cscssssssssc" />
    <path
       style="fill:#ffffff;fill-opacity:1;stroke:#000000;stroke-width:3.69365;stroke-dasharray:none"
       d="m -32.630607,435.93888 11.184813,-4.27656 10.855858,10.85586 15.1324008,14.47447 -11.8427448,26.31723 -23.685508,1.31586 -12.829633,-29.27792 z"
       id="path11" />
    <g
       id="g9"
       transform="matrix(17.256236,-6.5801576,6.5801576,17.256236,-777.74207,-90.68559)"
       inkscape:transform-center-x="-28.795659"
       inkscape:transform-center-y="44.491988">
      <path
         style="fill:#ffffff;fill-opacity:1;stroke:#000000;stroke-width:0.2;stroke-dasharray:none"
         d="m 35.821106,40.179089 c 0,0 0.251907,-0.125953 0.453432,0.251906 0.201525,0.37786 1.183961,6.096138 1.183961,6.096138 l -0.35267,0.07557 c 0,0 -0.201525,-1.864108 -0.554194,-2.972497 C 36.198966,42.52182 36.35011,41.01038 36.022631,40.708093 35.695153,40.405805 35.821106,40.179089 35.821106,40.179089 Z"
         id="path8" />
      <path
         style="fill:#ffffff;fill-opacity:1;stroke:#000000;stroke-width:0.189658;stroke-dasharray:none"
         d="m 37.109516,46.323623 c 0,0 -0.256401,0.107615 -0.45123,-0.233469 -0.19483,-0.341084 -1.061294,-5.463442 -1.061294,-5.463442 l 0.356795,-0.06073 c 0,0 0.162877,1.667582 0.494218,2.663552 0.331339,0.995969 0.14663,2.34207 0.46993,2.618104 0.323301,0.276036 0.191581,0.475983 0.191581,0.475983 z"
         id="path9" />
    </g>
    <path
       style="fill:#ffffff;fill-opacity:1;stroke:#000000;stroke-width:3.69365;stroke-dasharray:none"
       d="m 160.53649,444.14366 11.18481,-4.27656 10.85585,10.85585 15.1324,14.47447 -11.84273,26.31723 -23.68552,1.31587 -12.82963,-29.27792 z"
       id="path12" />
    <path
       style="fill:#ffffff;fill-opacity:1;stroke:#000000;stroke-width:3.69365;stroke-dasharray:none"
       d="m 16.13323,471.77842 c 0,0 20.927331,-1.04254 24.111053,8.78426 3.183705,9.82688 2.440212,24.90156 2.440212,24.90156 l -3.211039,160.58925 c 0,0 1.227399,8.44536 -1.520122,11.31777 -2.74752,2.87241 -13.149225,2.71829 -13.149225,2.71829 l -10.526476,-5.774 -3.448798,-20.02666 c 0,0 5.323307,-15.21493 8.534677,-35.35101 3.211368,-20.13608 2.043215,-53.65404 -0.08495,-71.47634 C 17.149654,529.63931 22.90674,506.21169 17.177336,499.67636 11.447914,493.14106 -4.7439736,497.58298 0.14477425,483.61008 5.0335025,469.63718 16.134029,471.77835 16.134029,471.77835 Z"
       id="path13"
       inkscape:transform-center-x="4.64731"
       inkscape:transform-center-y="89.617573" />
    <path
       style="fill:#ffffff;fill-opacity:1;stroke:#000000;stroke-width:3.69365;stroke-dasharray:none"
       d="m -10.218632,843.33858 c -8.010196,5.99491 -13.002365,11.68996 -13.229655,22.39786 -0.227344,10.70798 7.976122,19.046 12.372194,22.75938 4.8727714,4.11597 20.8425227,3.5694 25.53981,-2.42916 3.301698,-4.21619 17.787916,-5.74685 27.358917,-4.33094 9.570983,1.41598 29.291819,9.35366 31.896467,11.38976 2.604621,2.03617 16.382337,4.2892 19.886207,4.90932 3.503835,0.62019 24.247872,2.25303 26.532052,0.34093 2.28417,-1.91217 4.34109,-3.58648 2.82161,-9.13693 -1.51937,-5.55031 -11.84495,-9.50878 -20.02063,-10.95577 -8.175648,-1.44697 -21.353877,-8.13407 -30.904317,-19.08997 -9.550391,-10.9559 -24.464992,-12.02035 -29.736349,-18.88325 -5.271336,-6.86296 -24.18596,-9.93251 -32.7233137,-6.71795 -8.5373537,3.21448 -19.7929923,9.74685 -19.7929923,9.74685 z"
       id="path16"
       sodipodi:nodetypes="cssssssssssssc"
       inkscape:transform-center-x="-43.650247"
       inkscape:transform-center-y="17.260369" />
    <g
       id="g16"
       inkscape:transform-center-x="-0.059300686"
       inkscape:transform-center-y="78.295544"
       transform="matrix(14.194181,-11.815302,11.815302,14.194181,-1268.8754,360.91192)">
      <path
         style="fill:#ffffff;fill-opacity:1;stroke:#000000;stroke-width:0.2;stroke-dasharray:none"
         d="m 36.854022,64.356492 c -0.195937,0.03563 -0.552187,0.124687 -0.391875,-0.302813 0.160313,-0.427499 -0.05344,-0.08906 0.730312,-0.783749 0.783749,-0.694686 1.709998,-1.94156 2.119685,-2.778747 0.409687,-0.837186 1.745623,-1.905935 1.870311,-2.315622 0.124687,-0.409687 0.748124,-0.819374 0.748124,-0.819374 l 0.730311,-0.05344 0.338438,0.4275 c 0,0 0.302812,0.03563 -0.124688,0.445312 -0.427499,0.409687 -1.549686,1.567498 -1.549686,1.567498 0,0 -1.531873,1.959373 -1.674373,2.08406 -0.1425,0.124688 -1.852498,1.994998 -1.852498,1.994998 z"
         id="path14" />
      <path
         style="fill:#ffffff;fill-opacity:1;stroke:#000000;stroke-width:0.2;stroke-dasharray:none"
         d="m 37.602146,64.552429 c 0,0 -0.302812,0.445312 -0.08906,0.605624 0.213749,0.160313 0.552187,0.195938 0.552187,0.195938 l 0.516561,-0.374062 4.773745,-5.575307 0.694687,-0.516562 0.35625,-0.427499 -0.106875,-0.659062 -0.4275,-0.01781 -0.730312,0.35625 -0.302812,0.783749 -0.908436,1.015312 -1.353749,1.371561 -1.122186,1.300311 -0.765937,1.015311 z"
         id="path15" />
    </g>
    <g
       id="g24"
       transform="matrix(18.468247,0,0,18.468247,-702.80869,-383.93778)">
      <path
         style="fill:#ffffff;fill-opacity:1;stroke:#000000;stroke-width:0.264;stroke-dasharray:none"
         d="m 45.969201,23.626099 c 0,0 0.0876,0.207651 0.789876,0.25114 0.702278,0.04349 0.971244,-0.418559 1.161058,-0.772179 0.189815,-0.353624 1.341265,-3.418304 -0.580273,-4.152768 -0.03791,-0.0053 0.46631,2.909878 -1.205594,3.556637 -0.106906,0.02855 -0.790402,0.508888 -0.165064,1.117171 z"
         id="path4" />
      <path
         style="fill:#ffffff;fill-opacity:1;stroke:#000000;stroke-width:0.299;stroke-dasharray:none"
         d="M 44.663026,30.115424 41.52679,27.709717 c 0,0 -2.241968,-0.491218 -1.700369,-3.325166 0.541599,-2.833949 3.841574,-3.942337 4.773628,-3.778598 0.932054,0.163739 2.166396,1.637392 2.31754,3.060664 0.151144,1.423272 0.516408,3.891956 0.100763,4.534317 -0.415646,0.642362 -1.372891,2.216778 -2.355326,1.91449 z"
         id="path2" />
      <path
         style="fill:#ffffff;fill-opacity:1;stroke:#000000;stroke-width:0.299;stroke-dasharray:none"
         d="m 43.453873,23.603641 c 0,0 -0.113358,0.226715 -0.8061,0.163739 -0.692743,-0.06298 -0.894269,-0.642362 -1.032817,-1.083198 -0.138549,-0.440837 -0.856482,-4.181648 1.120984,-4.723247 0.03779,0 -0.843887,3.299975 0.705338,4.320196 0.100763,0.05038 0.705338,0.717934 0.01259,1.32251 z"
         id="path1" />
      <path
         style="fill:#000000;fill-opacity:1;stroke:#000000;stroke-width:0.299;stroke-linecap:round;stroke-dasharray:none;paint-order:stroke fill markers"
         d="m 44.118415,25.489847 c 0,0 -0.178125,0.97078 -0.01781,1.033124 0.160312,0.06234 1.335936,0.21375 1.362655,0.391875 0.02672,0.178124 0.365156,-0.187031 0.08906,-0.463125 -0.276093,-0.276093 -1.433904,-0.961874 -1.433904,-0.961874 z"
         id="path23" />
    </g>
    <path
       style="fill:#ffffff;fill-opacity:1;stroke:#000000;stroke-width:5.522;stroke-dasharray:none"
       d="m 13.175909,237.60569 c 0,0 -6.978412,-3.25658 -6.5131794,-14.42203 0.4652166,-11.16545 8.8393104,-15.3525 13.0263564,-15.3525 4.187048,0 11.630676,4.65228 14.42204,8.83932 2.791364,4.18705 5.582729,25.12227 5.582729,25.12227 l -75.36679,106.07179 c 0,0 -8.374095,5.58272 -10.700227,0.93043 -2.326148,-4.65229 -6.047963,-7.44364 3.721816,-21.8657 9.769774,-14.42203 48.848843,-60.01429 55.827255,-89.32361 z"
       id="path5" />
    <g
       id="g27"
       inkscape:transform-center-x="-0.05925388"
       inkscape:transform-center-y="78.295538"
       transform="matrix(14.194181,-11.815302,11.815302,14.194181,-1167.5482,349.74646)">
      <path
         style="fill:#ffffff;fill-opacity:1;stroke:#000000;stroke-width:0.2;stroke-dasharray:none"
         d="m 36.854022,64.356492 c -0.195937,0.03563 -0.552187,0.124687 -0.391875,-0.302813 0.160313,-0.427499 -0.05344,-0.08906 0.730312,-0.783749 0.783749,-0.694686 1.709998,-1.94156 2.119685,-2.778747 0.409687,-0.837186 1.745623,-1.905935 1.870311,-2.315622 0.124687,-0.409687 0.748124,-0.819374 0.748124,-0.819374 l 0.730311,-0.05344 0.338438,0.4275 c 0,0 0.302812,0.03563 -0.124688,0.445312 -0.427499,0.409687 -1.549686,1.567498 -1.549686,1.567498 0,0 -1.531873,1.959373 -1.674373,2.08406 -0.1425,0.124688 -1.852498,1.994998 -1.852498,1.994998 z"
         id="path26" />
      <path
         style="fill:#ffffff;fill-opacity:1;stroke:#000000;stroke-width:0.2;stroke-dasharray:none"
         d="m 37.602146,64.552429 c 0,0 -0.302812,0.445312 -0.08906,0.605624 0.213749,0.160313 0.552187,0.195938 0.552187,0.195938 l 0.516561,-0.374062 4.773745,-5.575307 0.694687,-0.516562 0.35625,-0.427499 -0.106875,-0.659062 -0.4275,-0.01781 -0.730312,0.35625 -0.302812,0.783749 -0.908436,1.015312 -1.353749,1.371561 -1.122186,1.300311 -0.765937,1.015311 z"
         id="path27" />
    </g>
  </g>
</svg>
